<?xml version="1.0" standalone="no"?>
<!DOCTYPE svg PUBLIC "-//W3C//DTD SVG 1.1//EN" "http://www.w3.org/Graphics/SVG/1.1/DTD/svg11.dtd" >
<svg xmlns="http://www.w3.org/2000/svg">
<metadata>
This is a custom SVG webfont generated by Font Squirrel.
Foundry     : This Font is designed by Ralph Oliver du Carrois
</metadata>
<defs>
<font id="webfontpFO0A3fx" horiz-adv-x="540" >
<font-face units-per-em="1000" ascent="800" descent="-200" />
<missing-glyph horiz-adv-x="270" />
<glyph unicode=" "  horiz-adv-x="270" />
<glyph unicode="&#x09;" horiz-adv-x="270" />
<glyph unicode="&#xa0;" horiz-adv-x="270" />
<glyph unicode="!" horiz-adv-x="270" d="M195 0h-120v110h120v-110zM191 182h-112v465h112v-465z" />
<glyph unicode="&#x22;" horiz-adv-x="400" d="M175 647l-8 -217h-84l-8 217h100zM325 647l-8 -217h-83l-8 217h99z" />
<glyph unicode="#" d="M524 389h-110l-24 -139h95v-79h-109l-30 -171h-94l30 171h-81l-30 -171h-94l30 171h-91v79h105l24 139h-90v79h105l31 179h94l-31 -179h81l31 179h94l-31 -179h95v-79zM320 389h-81l-24 -139h81z" />
<glyph unicode="$" d="M484 168q0 -87 -46.5 -128.5t-129.5 -53.5v-84h-88v79q-70 1 -178 31l39 106l45 -18q21 -8 46.5 -14.5t47.5 -7.5v207q-43 17 -67 29t-55 35t-45.5 56t-14.5 77q0 77 51 120.5t131 54.5v89h88v-87q85 -6 148 -27l-39 -106q-65 29 -109 35v-185q38 -14 64.5 -28t54.5 -38 t42.5 -59.5t14.5 -82.5zM222 411v146q-60 -16 -60 -75q0 -41 60 -71zM360 166q0 46 -54 79v-156q54 20 54 77z" />
<glyph unicode="%" horiz-adv-x="830" d="M787 166q0 -86 -33 -132.5t-112 -46.5q-78 0 -110.5 46t-32.5 133q0 172 144 172q79 0 111.5 -43.5t32.5 -128.5zM640 629l-363 -629h-97l362 629h98zM332 488q0 -86 -33.5 -132.5t-112.5 -46.5q-78 0 -110.5 46t-32.5 133q0 172 144 172q79 0 112 -43.5t33 -128.5z M707 166q0 61 -13 87.5t-51 26.5t-50.5 -29t-12.5 -85q0 -65 12 -93t50 -28t51.5 30t13.5 91zM251 488q0 61 -13 87.5t-51 26.5t-50.5 -29t-12.5 -85q0 -65 12 -93t50 -28t51.5 30t13.5 91z" />
<glyph unicode="&#x26;" d="M495 0h-106l-16 45q-17 -24 -53.5 -42.5t-66.5 -18.5q-87 0 -147 46.5t-60 150.5q0 130 108 185q-16 14 -35.5 27.5t-36 41.5t-16.5 60q0 74 45 121t138 47q87 0 135 -41.5t48 -122.5q0 -89 -174 -164q-52 -22 -74 -57.5t-22 -94.5q0 -46 24 -79.5t79 -33.5q49 0 101 67 v79h-88v80h200v-156q0 -27 8.5 -81t8.5 -59zM319 500q0 77 -72 77q-68 0 -68 -81q0 -26 20.5 -50.5t33.5 -33.5q39 17 62.5 37t23.5 51z" />
<glyph unicode="'" horiz-adv-x="270" d="M185 647l-8 -217h-84l-8 217h100z" />
<glyph unicode="(" horiz-adv-x="315" d="M263 -128h-103q-63 109 -84.5 188.5t-21.5 193.5q0 130 22.5 211t78.5 182h103q-53 -97 -72 -181t-19 -212q0 -112 19 -194.5t77 -187.5z" />
<glyph unicode=")" horiz-adv-x="315" d="M263 254q0 -114 -21.5 -193.5t-84.5 -188.5h-103q58 105 77 187.5t19 194.5q0 128 -19 212t-72 181h103q56 -101 78.5 -182t22.5 -211z" />
<glyph unicode="*" horiz-adv-x="430" d="M420 473l-150 -36l-1 -9l98 -128l-58 -41l-85 132h-10l-88 -133l-58 44l99 126l-3 9l-154 37l23 71l148 -55l9 7l-7 153h70l-7 -156l8 -5l147 54z" />
<glyph unicode="+" d="M488 178h-170v-178h-96v178h-170v86h170v167h96v-167h170v-86z" />
<glyph unicode="," horiz-adv-x="270" d="M195 75l-81 -178h-86l47 178h120z" />
<glyph unicode="-" horiz-adv-x="350" d="M323 178h-296v94h296v-94z" />
<glyph unicode="." horiz-adv-x="270" d="M195 0h-120v110h120v-110z" />
<glyph unicode="/" horiz-adv-x="300" d="M304 657l-211 -668h-97l213 668h95z" />
<glyph unicode="0" d="M502 308q0 -77 -11 -133.5t-36.5 -101.5t-72 -67.5t-114.5 -22.5q-129 0 -179.5 82.5t-50.5 242.5q0 153 54 233t177 80q130 0 181.5 -78.5t51.5 -234.5zM376 308q0 118 -20 168.5t-87 50.5q-35 0 -57 -16.5t-32 -50.5t-13 -67t-3 -85q0 -49 1.5 -79t7 -62.5t16.5 -49.5 t31 -28.5t48 -11.5t48 11.5t31.5 30.5t18 50.5t8.5 62.5t2 76z" />
<glyph unicode="1" d="M392 -1h-126v488l-114 -91l-38 91l156 120h122v-608z" />
<glyph unicode="2" d="M496 0h-413l-35 103q36 24 89 65l102 82q49 40 84 87t35 83q0 108 -98 108q-61 0 -155 -50l-37 103q75 26 110 33.5t84 7.5q44 0 81.5 -9.5t70.5 -31t51.5 -61.5t18.5 -96q0 -45 -27 -95t-71.5 -94.5t-85.5 -78t-84 -62.5h280v-94z" />
<glyph unicode="3" d="M469 170q0 -53 -21.5 -91.5t-57.5 -58t-75.5 -28.5t-84.5 -9q-115 0 -190 26l37 103q22 -11 67.5 -23t88.5 -12q51 0 80.5 27t29.5 67q0 27 -9 46t-24 30t-41 17t-51.5 7.5t-64.5 1.5v92q97 0 136 15t39 71q0 77 -89 77q-57 0 -151 -46l-37 103q31 15 91 26t101 11 q211 0 211 -169q0 -59 -39 -92.5t-98 -40.5q63 -10 107.5 -46t44.5 -104z" />
<glyph unicode="4" d="M518 161h-96v-161h-124v161h-242l-41 96l271 350h136v-351h96v-95zM298 256v234l-181 -234h181z" />
<glyph unicode="5" d="M489 196q0 -100 -70.5 -156.5t-175.5 -56.5q-123 0 -196 24l37 103q83 -33 160 -33q121 0 121 121q0 101 -91 101q-29 0 -53.5 -6.5t-38.5 -15.5l-32 -19l-81 31v318h395v-94h-271v-133q39 15 90 15q95 0 150.5 -50t55.5 -149z" />
<glyph unicode="6" d="M494 184q0 -88 -64 -144.5t-153 -56.5q-232 0 -232 300q0 63 15 121t45.5 108t84 80t122.5 30q74 0 145 -19l-37 -103q-56 28 -103 28q-80 0 -117 -58t-37 -139q19 37 57 55.5t68 18.5q103 0 154.5 -57t51.5 -164zM368 184v6q0 24 -2 39.5t-9.5 37t-27 33t-50.5 11.5 q-78 0 -107 -75q0 -93 27 -126t79 -33q39 0 64.5 27t25.5 80z" />
<glyph unicode="7" d="M474 526l-215 -526h-134l237 513h-309v93h382z" />
<glyph unicode="8" d="M502 155q0 -172 -234 -172q-230 0 -230 172q0 132 146 165q-10 5 -25 9.5t-32.5 16t-32.5 25t-25 36t-10 49.5q0 79 54 122.5t160 43.5q113 0 163.5 -39.5t50.5 -125.5q0 -43 -26 -75t-53 -45t-52 -18q73 -19 109.5 -57.5t36.5 -106.5zM365 452q0 37 -19.5 57t-72.5 20 q-52 0 -72 -19.5t-20 -57.5q0 -60 88 -90q96 31 96 90zM379 158q0 47 -29 73.5t-79 43.5q-54 -18 -82 -42.5t-28 -74.5q0 -37 26 -59.5t81 -22.5q111 0 111 82z" />
<glyph unicode="9" d="M495 322q0 -63 -15 -121t-45.5 -108t-84 -80t-122.5 -30q-74 0 -145 19l37 103q56 -28 103 -28q80 0 117 58t37 139q-19 -37 -57 -55.5t-68 -18.5q-103 0 -154.5 56.5t-51.5 163.5q0 88 65.5 145t151.5 57q57 0 99.5 -17.5t67 -45t40 -68.5t20.5 -80.5t5 -88.5zM368 369 q0 93 -27 126t-79 33q-39 0 -64.5 -27.5t-25.5 -80.5v-6q0 -18 1 -30.5t5.5 -31t13.5 -30t26.5 -20t42.5 -8.5q78 0 107 75z" />
<glyph unicode=":" horiz-adv-x="270" d="M195 0h-120v110h120v-110zM195 342h-120v110h120v-110z" />
<glyph unicode=";" horiz-adv-x="270" d="M195 342h-120v110h120v-110zM195 75l-81 -178h-86l47 178h120z" />
<glyph unicode="&#x3c;" d="M495 37l-450 147v120l450 149v-109l-337 -100l337 -98v-109z" />
<glyph unicode="=" d="M495 242h-450v86h450v-86zM495 69h-450v86h450v-86z" />
<glyph unicode="&#x3e;" d="M495 186l-450 -149v109l337 100l-337 98v109l450 -147v-120z" />
<glyph unicode="?" horiz-adv-x="460" d="M268 0h-120v110h120v-110zM429 490q0 -33 -17 -60.5t-42 -47.5l-48 -38q-24 -18 -41 -40.5t-17 -47.5v-80h-112v85q0 38 16 67.5t39 48.5t46 35t39 35.5t16 42.5q0 37 -17.5 53.5t-63.5 16.5q-29 0 -80.5 -11t-77.5 -24l-18 102q33 11 87 20.5t89 9.5q30 0 53.5 -2.5 t53 -12.5t49 -27t33 -49t13.5 -76z" />
<glyph unicode="@" horiz-adv-x="900" d="M820 381q0 -72 -27 -123.5t-74.5 -79t-102.5 -40t-120 -12.5q-114 0 -174 50.5t-60 145.5q0 84 52 137t158 53q64 0 109 -14v-153h20l31 -82l-153 -13v171q-8 5 -16 5q-90 0 -90 -104q0 -114 125 -114q50 0 83 5.5t64.5 22.5t46.5 52.5t15 91.5t-20 96t-54.5 60t-71 28.5 t-79.5 8.5q-34 0 -67 -4.5t-75 -20.5t-73 -42t-52.5 -74t-21.5 -112q0 -65 22 -113.5t53.5 -74.5t75 -41t75.5 -19t67 -4q88 0 213 32l39 -93q-118 -26 -255 -26q-182 0 -292.5 85.5t-110.5 253.5q0 114 55.5 192.5t144 113t202.5 34.5q44 0 88.5 -8.5t90 -29t80.5 -51.5 t57 -80t22 -110z" />
<glyph unicode="A" horiz-adv-x="681" d="M652 0h-139l-58 173h-231l-61 -173h-134l263 647h116zM423 268l-79 239l-85 -239h164z" />
<glyph unicode="B" horiz-adv-x="625" d="M571 189q0 -189 -215 -189h-262v647h229q218 0 218 -178q0 -49 -28.5 -83t-74.5 -47q62 -9 97.5 -46.5t35.5 -103.5zM413 468q0 82 -90 82h-103v-169h117q34 0 55 22.5t21 64.5zM442 189q0 96 -103 96h-119v-188h130q92 0 92 92z" />
<glyph unicode="C" horiz-adv-x="575" d="M539 12q-88 -31 -182 -31q-298 0 -298 342q0 71 15.5 129t49 106.5t94 75t143.5 26.5q91 0 171 -26l-39 -106q-82 35 -132 35q-92 0 -132 -60.5t-40 -178.5q0 -124 38.5 -185t127.5 -61q25 0 50 5.5t47 14.5l48 20z" />
<glyph unicode="D" horiz-adv-x="673" d="M614 326q0 -176 -73.5 -251t-235.5 -75h-211v647h211q160 0 234.5 -74t74.5 -247zM484 325q0 74 -13 121t-40 68.5t-55 28.5t-71 7h-85v-453h94q84 0 127 48t43 180z" />
<glyph unicode="E" horiz-adv-x="581" d="M487 0h-393v647h384v-97h-258v-167h237v-97h-237v-189h267v-97z" />
<glyph unicode="F" horiz-adv-x="530" d="M478 549h-258v-170h246v-96h-246v-283h-126v647h384v-98z" />
<glyph unicode="G" horiz-adv-x="634" d="M575 39q-53 -31 -101 -44.5t-117 -13.5q-298 0 -298 343q0 157 75 246.5t232 89.5q63 0 163 -26l-39 -106q-80 35 -123 35q-86 0 -132 -53t-46 -186q0 -124 38 -185t133 -61q60 0 103 25v146h-143v97h255v-307z" />
<glyph unicode="H" horiz-adv-x="692" d="M598 0h-126v285h-252v-285h-126v647h126v-264h252v264h126v-647z" />
<glyph unicode="I" horiz-adv-x="290" d="M208 0h-126v647h126v-647z" />
<glyph unicode="J" horiz-adv-x="443" d="M349 204q0 -46 -10.5 -85t-25.5 -66.5t-41.5 -51t-49 -38t-58 -29t-58 -21.5t-59.5 -17l-33 104q28 7 56.5 11t56 16.5t49 30t34.5 52.5t13 84v453h126v-443z" />
<glyph unicode="K" horiz-adv-x="659" d="M645 0h-163l-262 295v-295h-126v647h126v-273l239 273h142l-264 -304z" />
<glyph unicode="L" horiz-adv-x="495" d="M489 0h-395v647h126v-547h269v-100z" />
<glyph unicode="M" horiz-adv-x="925" d="M831 0h-124v513l-182 -513h-129l-182 513v-513h-120v647h207l164 -478l168 478h198v-647z" />
<glyph unicode="N" horiz-adv-x="727" d="M633 0h-189l-230 498v-498h-120v647h187l228 -498v498h124v-647z" />
<glyph unicode="O" horiz-adv-x="725" d="M666 321q0 -156 -71.5 -248t-230.5 -92q-305 0 -305 340q0 154 73 246.5t233 92.5q301 0 301 -339zM536 321q0 128 -41.5 185t-130.5 57q-90 0 -132.5 -58t-42.5 -184q0 -131 41.5 -187t133.5 -56q91 0 131.5 59.5t40.5 183.5z" />
<glyph unicode="P" horiz-adv-x="600" d="M550 453q0 -200 -218 -200h-112v-253h-126v647h227q229 0 229 -194zM422 453q0 60 -27.5 78.5t-75.5 18.5h-99v-200h104q98 0 98 103z" />
<glyph unicode="Q" horiz-adv-x="725" d="M666 321q0 -156 -71.5 -248t-230.5 -92q-305 0 -305 340q0 155 72.5 247t233.5 92q301 0 301 -339zM592 -64l-43 -83l-226 34l43 70zM536 321q0 128 -41.5 185t-130.5 57q-90 0 -132.5 -58t-42.5 -184q0 -131 41.5 -187t133.5 -56q91 0 131.5 59.5t40.5 183.5z" />
<glyph unicode="R" horiz-adv-x="642" d="M599 0h-154l-197 269h-28v-269h-126v647h242q43 0 78.5 -8t69 -27.5t52.5 -58t19 -93.5q0 -72 -37.5 -123t-122.5 -64zM427 460q0 42 -21.5 66t-64.5 24h-121v-184h122q42 0 63.5 26t21.5 68z" />
<glyph unicode="S" horiz-adv-x="594" d="M525 168q0 -187 -267 -187q-80 0 -194 31l39 106q107 -40 156 -40q68 0 103 18.5t35 69.5q0 20 -9 36.5t-24 28t-35 22t-43 18.5t-48 18q-39 15 -64.5 28.5t-53.5 36t-42 54.5t-14 74q0 61 39 102.5t93.5 58.5t118.5 17q100 0 182 -28l-39 -106q-86 37 -146 37 q-64 0 -92 -23.5t-28 -57.5q0 -11 3.5 -20.5t10 -17t16 -14.5t20.5 -12.5t24 -11t27 -10t29 -10.5q45 -16 72.5 -29t62 -38t51.5 -63t17 -88z" />
<glyph unicode="T" horiz-adv-x="526" d="M504 549h-178v-549h-126v549h-178v98h482v-98z" />
<glyph unicode="U" horiz-adv-x="723" d="M629 237q0 -127 -67 -191.5t-194 -64.5q-274 0 -274 258v408h126v-398q0 -100 39 -135.5t109 -35.5q135 0 135 171v398h126v-410z" />
<glyph unicode="V" horiz-adv-x="652" d="M624 647l-236 -647h-116l-244 647h139l166 -492l157 492h134z" />
<glyph unicode="W" horiz-adv-x="967" d="M933 647l-166 -647h-156l-126 452l-148 -452h-156l-147 647h133l108 -494l142 467h156l118 -467l119 494h123z" />
<glyph unicode="X" horiz-adv-x="632" d="M596 0h-149l-134 234l-148 -234h-135l216 334l-190 313h145l119 -203l127 203h135l-198 -308z" />
<glyph unicode="Y" horiz-adv-x="619" d="M605 647l-233 -356v-291h-126v287l-232 360h143l157 -248l155 248h136z" />
<glyph unicode="Z" horiz-adv-x="561" d="M518 545l-338 -447h330v-98h-434l-33 102l339 447h-302v98h405z" />
<glyph unicode="[" horiz-adv-x="305" d="M258 -127h-175v803h175v-80h-79v-640h79v-83z" />
<glyph unicode="\" horiz-adv-x="300" d="M304 -11h-97l-211 668h95z" />
<glyph unicode="]" horiz-adv-x="305" d="M232 -127h-175v83h79v640h-79v80h175v-803z" />
<glyph unicode="^" d="M508 269h-105l-134 292l-135 -292h-102l181 378h110z" />
<glyph unicode="_" horiz-adv-x="500" d="M501 -116h-502v86h502v-86z" />
<glyph unicode="`" horiz-adv-x="247" d="M228 530h-78l-131 117h113z" />
<glyph unicode="a" horiz-adv-x="522" d="M464 0h-107l-17 46q-61 -59 -119 -59q-87 0 -132.5 34t-45.5 99q0 167 251 167h38v22q0 33 -13 53.5t-52 20.5q-83 0 -167 -40l-39 93q94 34 212 34q79 0 126 -37t47 -109v-184q0 -21 8 -74zM333 121v90h-25q-78 0 -112.5 -21.5t-34.5 -64.5q0 -51 81 -51q57 0 91 47z " />
<glyph unicode="b" horiz-adv-x="531" d="M488 231q0 -104 -53.5 -174t-151.5 -70q-38 0 -65.5 18.5t-41.5 40.5l-18 -46h-104q12 93 12 140v517h113v-260q53 73 120 73q97 0 143 -67.5t46 -171.5zM372 229q0 154 -94 154q-33 0 -55.5 -23t-45.5 -65v-157q30 -64 88 -64q107 0 107 155z" />
<glyph unicode="c" horiz-adv-x="464" d="M430 19q-25 -12 -78.5 -22t-82.5 -10q-109 0 -167.5 65t-58.5 173q0 114 58 179.5t171 65.5q29 0 78 -10.5t76 -21.5l-39 -93q-76 38 -116 38q-58 0 -85 -36t-27 -122q0 -151 111 -151q47 0 121 38z" />
<glyph unicode="d" horiz-adv-x="531" d="M477 0h-104l-18 46q-14 -22 -41.5 -40.5t-65.5 -18.5q-107 0 -156 68t-49 176q0 103 48 171t141 68q67 0 120 -73v260h113v-517q0 -47 12 -140zM354 138v157q-23 42 -45.5 65t-55.5 23q-94 0 -94 -154q0 -87 26 -121t81 -34q58 0 88 64z" />
<glyph unicode="e" horiz-adv-x="521" d="M476 185h-314q7 -55 35 -84.5t75 -29.5q65 0 143 39l37 -87q-79 -36 -188 -36q-106 0 -163.5 68t-57.5 169q0 43 10.5 83.5t34 78.5t68 61t104.5 23q117 0 166.5 -69t49.5 -216zM367 266q-7 117 -108 117q-36 0 -65 -26.5t-32 -90.5h205z" />
<glyph unicode="f" horiz-adv-x="334" d="M334 582q-71 -7 -106 -31t-35 -72v-22h104v-87h-104v-370h-113v370h-69v87h69v13q0 50 21.5 89.5t56.5 63t72.5 36.5t75.5 16z" />
<glyph unicode="g" horiz-adv-x="545" d="M517 473l-29 -76h-56q46 -46 46 -101q0 -32 -10.5 -61t-33 -55.5t-65 -42.5t-99.5 -16q-17 0 -50.5 5t-49.5 12q-21 -11 -21 -33q0 -18 26.5 -26t110.5 -15q130 -10 177 -41.5t47 -91.5q0 -36 -20 -62.5t-54.5 -41t-74 -21.5t-85.5 -7q-129 0 -183.5 33.5t-54.5 95.5 q0 57 74 87q-58 26 -58 85q0 41 53 80q-46 58 -46 117q0 25 8 50.5t27.5 55t64 48.5t107.5 19q32 0 77 -9q123 10 172 12zM362 299q0 41 -23 63.5t-69 22.5q-93 0 -93 -90q0 -89 94 -89q48 0 69.5 27.5t21.5 65.5zM394 -69q0 41 -207 46q-33 -16 -33 -45q0 -23 36 -36.5 t86 -13.5q67 0 92.5 10.5t25.5 38.5z" />
<glyph unicode="h" horiz-adv-x="529" d="M463 0h-113v293q0 21 -2 34t-8.5 27.5t-21.5 22t-39 7.5q-56 0 -100 -86v-298h-113v657h113v-260q56 74 119 74q94 0 129.5 -47.5t35.5 -135.5v-288z" />
<glyph unicode="i" horiz-adv-x="247" d="M183 549h-119v98h119v-98zM180 0h-113v457h113v-457z" />
<glyph unicode="j" horiz-adv-x="244" d="M180 549h-121v98h121v-98zM176 6q0 -81 -44.5 -128t-122.5 -74l-39 93q52 11 72.5 33t20.5 67v460h113v-451z" />
<glyph unicode="k" horiz-adv-x="487" d="M475 0h-130l-166 229v-229h-113v657h113v-380l150 180h122l-166 -198z" />
<glyph unicode="l" horiz-adv-x="245" d="M179 0h-113v657h113v-657z" />
<glyph unicode="m" horiz-adv-x="810" d="M744 0h-113v290q0 51 -15 72.5t-50 21.5q-38 0 -65.5 -26t-41.5 -65v-293h-113v290q0 55 -16 74.5t-54 19.5q-31 0 -57 -27.5t-40 -57.5v-299h-113v352q0 22 -5.5 58.5t-6.5 46.5h104l18 -61q17 25 51 50t70 25q57 0 86 -16t60 -58q46 74 140 74q161 0 161 -179v-292z " />
<glyph unicode="n" horiz-adv-x="529" d="M463 0h-113v293q0 21 -2 34t-8.5 27.5t-21.5 22t-39 7.5q-58 0 -100 -86v-298h-113v360q0 17 -2 33t-5.5 34.5t-4.5 29.5h104l18 -60q2 2 11 12.5t15 16t18 15.5t22.5 15.5t25.5 10t30 4.5q94 0 129.5 -47.5t35.5 -135.5v-288z" />
<glyph unicode="o" horiz-adv-x="537" d="M494 231q0 -51 -12.5 -94t-38 -77.5t-70.5 -54t-104 -19.5q-116 0 -171 68.5t-55 176.5q0 105 55.5 172.5t170.5 67.5q117 0 171 -66t54 -174zM378 231q0 83 -25.5 118t-83.5 35q-56 0 -83 -35.5t-27 -117.5q0 -158 110 -158q109 0 109 158z" />
<glyph unicode="p" horiz-adv-x="531" d="M488 226q0 -103 -48 -171.5t-141 -68.5q-33 0 -67 16.5t-53 42.5v-225h-113v497q0 47 -12 140h104l20 -60q53 74 114 74q101 0 148.5 -68.5t47.5 -176.5zM372 228q0 87 -26 121.5t-81 34.5q-48 0 -88 -85v-160q37 -66 101 -66q94 0 94 155z" />
<glyph unicode="q" horiz-adv-x="531" d="M477 457q-12 -93 -12 -140v-497h-113v225q-19 -26 -53 -42.5t-67 -16.5q-67 0 -111 34.5t-61 86t-17 119.5q0 106 49.5 175.5t146.5 69.5q38 0 68.5 -23.5t45.5 -50.5l20 60h104zM354 139v160q-40 85 -90 85q-54 0 -79.5 -34.5t-25.5 -121.5q0 -155 94 -155q64 0 101 66z " />
<glyph unicode="r" horiz-adv-x="390" d="M377 449l-39 -93q-37 28 -66 28q-15 0 -29 -9t-23.5 -22.5t-18.5 -29t-13.5 -28.5t-8.5 -22v-273h-113v355q0 20 -2 39t-5.5 38.5t-4.5 24.5h104l18 -78q17 30 49.5 61t64.5 31q45 0 87 -22z" />
<glyph unicode="s" horiz-adv-x="451" d="M410 125q0 -51 -30 -83.5t-72 -44t-95 -11.5q-86 0 -175 32l39 93q32 -14 68 -26t70 -12q48 0 63.5 13.5t15.5 37.5q0 14 -14 24.5t-29 16t-46 14.5q-35 10 -56 19t-48 26t-40.5 45t-13.5 66q0 136 194 136q66 0 157 -29l-39 -93l-31 15q-15 6 -28 10.5t-27.5 7 t-30.5 2.5q-79 0 -79 -46q0 -20 20.5 -31.5t64.5 -24.5q29 -9 45 -14.5t42 -19t39.5 -28.5t24.5 -39.5t11 -55.5z" />
<glyph unicode="t" horiz-adv-x="335" d="M326 0l-30 -97q-90 23 -148.5 78.5t-58.5 138.5v250h-76v88h76v122h113v-122h107v-88h-107v-259q0 -46 31 -71t93 -40z" />
<glyph unicode="u" horiz-adv-x="522" d="M468 0h-104l-18 60q-2 -2 -13 -15t-19 -20.5t-21.5 -18t-30 -15.5t-34.5 -5q-89 0 -125.5 48t-36.5 135v288h113v-293q0 -20 2 -33.5t8 -28t21 -22t37 -7.5q54 0 96 86v298h113v-360q0 -17 2 -33t5.5 -34.5t4.5 -29.5z" />
<glyph unicode="v" horiz-adv-x="537" d="M501 457l-177 -457h-111l-177 457h121l115 -324l111 324h118z" />
<glyph unicode="w" horiz-adv-x="797" d="M767 457l-151 -457h-118l-94 280l-104 -280h-119l-151 457h120l101 -319l101 279h111l96 -279l92 319h116z" />
<glyph unicode="x" horiz-adv-x="494" d="M471 0h-127l-98 152l-104 -152h-119l165 231l-154 226h127l90 -143l94 143h118l-156 -219z" />
<glyph unicode="y" horiz-adv-x="530" d="M494 457l-191 -530q-23 -63 -63.5 -105.5t-110.5 -66.5l-38 93q71 19 88 65l40 106l-183 438h121l117 -311l102 311h118z" />
<glyph unicode="z" horiz-adv-x="444" d="M418 364l-262 -277h246v-87h-337l-39 93l265 277h-233v87h321z" />
<glyph unicode="{" horiz-adv-x="390" d="M316 -118q-68 2 -109 27.5t-54 62t-20.5 79.5t-10 80t-20.5 62.5t-54 28.5v87q31 1 47.5 19.5t21.5 48t8 64.5t11.5 70.5t25.5 65t56 49t98 21.5v-87q-41 0 -61 -24.5t-24.5 -62.5t-8 -78t-21.5 -77t-55 -54q38 -14 56.5 -50t21.5 -76.5t7.5 -79t24 -64t60.5 -25.5v-87z " />
<glyph unicode="|" horiz-adv-x="270" d="M183 -166h-96v868h96v-868z" />
<glyph unicode="}" horiz-adv-x="390" d="M342 222q-36 -3 -54 -28.5t-20.5 -62.5t-10 -80t-20.5 -79.5t-54 -62t-109 -27.5v87q41 0 60.5 25.5t24 64t7.5 79t21.5 76.5t56.5 50q-37 17 -55 54t-21.5 77t-8 78t-24.5 62.5t-61 24.5v87q59 -2 98 -21.5t56 -49t25.5 -65t11.5 -70.5t8 -64.5t21.5 -48t47.5 -19.5v-87 z" />
<glyph unicode="~" d="M511 269q0 -53 -36.5 -89t-101.5 -36q-39 0 -79 22.5t-68.5 45t-40.5 22.5q-35 0 -51 -16.5t-16 -60.5l-89 48q0 53 36 89t100 36q43 0 84.5 -22t69 -44t35.5 -22q36 0 52 15.5t16 59.5z" />
<glyph unicode="&#xa2;" horiz-adv-x="459" d="M425 19q-31 -15 -113 -28v-91h-91v91q-87 14 -132.5 76.5t-45.5 157.5q0 101 45 164t133 77v94h91v-94q58 -9 109 -28l-39 -93q-35 18 -70 30v-294q29 8 74 31zM221 84v291q-62 -25 -62 -150q0 -112 62 -141z" />
<glyph unicode="&#xa3;" d="M518 0h-463v100h64v199h-75v87h75v6q0 64 17.5 112.5t44.5 77t69.5 48.5t80.5 28.5t90 14.5l33 -104h-8q-30 -2 -45.5 -3.5t-41 -5.5t-38.5 -11t-30 -20t-25.5 -30.5t-14.5 -44.5t-6 -62v-6h151v-87h-151v-199h273v-100z" />
<glyph unicode="&#xa5;" d="M540 647l-186 -319h104v-86h-126v-51h126v-86h-126v-105h-126v105h-126v86h126v51h-126v86h103l-183 319h140l134 -251l134 251h132z" />
<glyph unicode="&#xa9;" horiz-adv-x="720" d="M695 324q0 -141 -97 -237.5t-238 -96.5t-238 96.5t-97 237.5t97 237.5t238 96.5q143 0 239 -96t96 -238zM626 324q0 112 -77 191.5t-189 79.5q-113 0 -189.5 -79t-76.5 -192q0 -111 77.5 -191t188.5 -80t188.5 80t77.5 191zM471 135q-51 -18 -109 -18q-179 0 -179 205 q0 90 42.5 146t138.5 56q60 0 103 -15l-24 -64q-48 21 -79 21q-55 0 -79 -36t-24 -107q0 -74 23 -111t77 -37q30 0 87 24z" />
<glyph unicode="&#xad;" horiz-adv-x="350" d="M323 178h-296v94h296v-94z" />
<glyph unicode="&#xae;" horiz-adv-x="720" d="M695 324q0 -141 -97 -237.5t-238 -96.5t-238 96.5t-97 237.5t97 237.5t238 96.5q143 0 239 -96t96 -238zM626 324q0 112 -77 191.5t-189 79.5q-113 0 -189.5 -79t-76.5 -192q0 -111 77.5 -191t188.5 -80t188.5 80t77.5 191zM523 129h-92l-119 162h-16v-162h-76v390h145 q56 0 94 -25.5t38 -88.5q0 -98 -96 -112zM420 405q0 54 -52 54h-72v-110h73q25 0 38 15.5t13 40.5z" />
<glyph unicode="&#xb4;" horiz-adv-x="247" d="M228 647l-131 -117h-78l96 117h113z" />
<glyph unicode="&#x2000;" horiz-adv-x="373" />
<glyph unicode="&#x2001;" horiz-adv-x="746" />
<glyph unicode="&#x2002;" horiz-adv-x="373" />
<glyph unicode="&#x2003;" horiz-adv-x="746" />
<glyph unicode="&#x2004;" horiz-adv-x="248" />
<glyph unicode="&#x2005;" horiz-adv-x="186" />
<glyph unicode="&#x2006;" horiz-adv-x="124" />
<glyph unicode="&#x2007;" horiz-adv-x="124" />
<glyph unicode="&#x2008;" horiz-adv-x="93" />
<glyph unicode="&#x2009;" horiz-adv-x="149" />
<glyph unicode="&#x200a;" horiz-adv-x="41" />
<glyph unicode="&#x2010;" horiz-adv-x="350" d="M323 178h-296v94h296v-94z" />
<glyph unicode="&#x2011;" horiz-adv-x="350" d="M323 178h-296v94h296v-94z" />
<glyph unicode="&#x2013;" horiz-adv-x="500" d="M501 195h-502v86h502v-86z" />
<glyph unicode="&#x2014;" horiz-adv-x="1000" d="M1001 187h-1002v94h1002v-94z" />
<glyph unicode="&#x2018;" horiz-adv-x="270" d="M220 648l-85 -188h-90l99 188h76z" />
<glyph unicode="&#x2019;" horiz-adv-x="270" d="M220 648l-98 -188h-77l85 188h90z" />
<glyph unicode="&#x201c;" horiz-adv-x="410" d="M215 648l-85 -188h-90l99 188h76zM370 648l-85 -188h-90l98 188h77z" />
<glyph unicode="&#x201d;" horiz-adv-x="410" d="M215 648l-98 -188h-77l85 188h90zM370 648l-99 -188h-76l85 188h90z" />
<glyph unicode="&#x2022;" d="M413 324q0 -60 -41.5 -102t-101.5 -42q-61 0 -102 41.5t-41 102.5q0 60 41.5 101.5t101.5 41.5t101.5 -41.5t41.5 -101.5z" />
<glyph unicode="&#x2026;" horiz-adv-x="810" d="M195 0h-120v110h120v-110zM465 0h-120v110h120v-110zM735 0h-120v110h120v-110z" />
<glyph unicode="&#x202f;" horiz-adv-x="149" />
<glyph unicode="&#x205f;" horiz-adv-x="186" />
<glyph unicode="&#x2122;" horiz-adv-x="925" d="M845 291h-74v282l-109 -282h-78l-109 282v-282h-72v356h124l99 -263l100 263h119v-356zM357 593h-107v-302h-75v302h-107v54h289v-54z" />
<glyph horiz-adv-x="244" />
</font>
</defs>
</svg>
