<?xml version="1.0" standalone="no"?>
<!DOCTYPE svg PUBLIC "-//W3C//DTD SVG 1.1//EN" "http://www.w3.org/Graphics/SVG/1.1/DTD/svg11.dtd" >
<svg xmlns="http://www.w3.org/2000/svg">
<metadata>
This is a custom SVG webfont generated by Font Squirrel.
Designer    : Andrew Paglinawan
Foundry     : Andrew Paglinawan
</metadata>
<defs>
<font id="webfontozh2o7Cr" horiz-adv-x="430" >
<font-face units-per-em="1000" ascent="800" descent="-200" />
<missing-glyph horiz-adv-x="500" />
<glyph unicode="!" horiz-adv-x="252" d="M93 174v502q0 10 7 17t17 7t17.5 -7t7.5 -17v-502q0 -10 -7 -17.5t-18 -7.5q-10 0 -17 7.5t-7 17.5zM93 24v24q0 10 7 17t17 7t17.5 -7t7.5 -17v-24q0 -10 -7.5 -17t-17.5 -7t-17 7t-7 17z" />
<glyph unicode="&#x22;" horiz-adv-x="410" d="M70 461l30 215q4 26 28 26h19q16 0 16 -17q0 -1 -5 -24l-57 -201q-6 -18 -17 -18q-17 0 -14 19zM250 461l30 215q4 26 28 26h19q16 0 16 -17q0 -1 -5 -24l-57 -201q-6 -18 -17 -18q-17 0 -14 19z" />
<glyph unicode="#" horiz-adv-x="700" d="M142 25l28 162h-101q-10 0 -17 6.5t-7 16.5t7 17t17 7h109l41 236h-110q-10 0 -17 6.5t-7 16.5t7 17t17 7h118l28 165q3 22 25 22q12 0 18 -9t4 -20l-27 -158h207l28 165q3 22 25 22q12 0 18 -9t4 -20l-27 -158h100q10 0 17 -6.5t7 -16.5t-7 -17t-17 -7h-108l-41 -236 h109q10 0 17 -6.5t7 -16.5t-7 -17t-17 -7h-117l-29 -169q-3 -22 -25 -22q-12 0 -18 9t-4 20l28 162h-207l-29 -169q-3 -22 -25 -22q-12 0 -18 9t-4 20zM226 234h207l41 236h-207z" />
<glyph unicode="$" horiz-adv-x="632" d="M297 738q0 10 7 17t17 7t17 -7t7 -17v-40q94 -8 178 -70q14 -11 14 -23q0 -10 -7.5 -17.5t-18.5 -7.5q-10 0 -18 7q-70 56 -150 65v-280q114 -24 165 -68.5t51 -118.5q0 -79 -60 -130.5t-154 -54.5v-78q0 -10 -7 -17t-17 -7t-17 7t-7 17v79q-125 10 -225 97q-11 9 -11 21 q0 10 7.5 17.5t17.5 7.5q11 0 18 -7q86 -80 195 -91v285q-112 25 -162 69t-50 119q0 76 59.5 127.5t150.5 53.5v38zM508 181q0 54 -35.5 86.5t-129.5 53.5v-276q74 1 119.5 39.5t45.5 96.5zM138 523q0 -54 34 -86.5t127 -54.5v273q-72 -1 -116.5 -39t-44.5 -93z" />
<glyph unicode="&#x26;" horiz-adv-x="696" d="M49 229q0 57 26.5 107t72.5 82q-44 47 -44 113q0 70 49.5 119.5t119.5 49.5t119.5 -49.5t49.5 -119.5q0 -10 -7.5 -17t-17.5 -7t-17 7t-7 17q0 50 -35 85t-85 35t-85 -35t-35 -85q0 -61 51 -97q16 -13 8 -29q-1 -6 -9 -12q-4 -3 -8 -4q-44 -24 -70.5 -66t-26.5 -94 q0 -74 53 -127t127 -53t127 53t53 127q0 19 -5 41q-11 2 -30 2q-81 0 -112 -31q-20 -20 -20 -51q0 -9 3 -21q5 -24 -16 -31q-3 -1 -7 -1q-19 0 -24 17q-5 5 -5 36q0 52 35 85q46 46 146 46q24 0 35 -2h6h3h7q17 3 28 11q14 14 14 37q0 16 -2 26q-3 10 2.5 18.5t15.5 10.5 q22 5 30 -18q3 -21 3 -37q3 -49 -34 -75q-15 -10 -29 -16q5 -25 5 -47q0 -95 -67.5 -162t-161.5 -67t-161.5 67t-67.5 162z" />
<glyph unicode="'" horiz-adv-x="230" d="M70 461l30 215q4 26 28 26h19q16 0 16 -17q0 -1 -5 -24l-57 -201q-6 -18 -17 -18q-17 0 -14 19z" />
<glyph unicode="(" d="M119 28q-48 103 -48 275q0 171 48 275q57 125 174 125q11 0 19 -8.5t8 -19.5t-8 -19.5t-19 -8.5q-80 -1 -124 -93q-42 -92 -42 -251t42 -251q45 -93 124 -93q11 0 19 -8.5t8 -19.5q0 -12 -8 -20t-19 -8h-2q-59 0 -103 34t-69 91z" />
<glyph unicode=")" d="M261 28q-25 -57 -69 -91t-103 -34h-2q-11 0 -19 8t-8 20q0 11 8 19.5t19 8.5q79 0 124 93q42 92 42 251t-42 251q-44 92 -124 93q-11 0 -19 8.5t-8 19.5t8 19.5t19 8.5q117 0 174 -125q48 -104 48 -275q0 -172 -48 -275z" />
<glyph unicode="*" d="M195 424l8 109l-91 -62q-9 -6 -16 -6q-8 0 -14 6.5t-6 14.5q0 13 14 19l103 49l-103 49q-14 7 -14 19q0 19 20 21q7 0 16 -6l91 -62l-8 109q-1 9 5 15.5t15 6.5t15 -6.5t5 -15.5l-8 -109l91 62q9 6 16 6q8 0 14 -6.5t6 -14.5q0 -13 -14 -19l-103 -49l103 -49 q14 -6 14 -19q0 -8 -6 -14.5t-14 -6.5q-7 0 -16 6l-91 62l8 -109q1 -9 -5 -15.5t-15 -6.5t-15 6.5t-5 15.5z" />
<glyph unicode="+" horiz-adv-x="620" d="M281 134v183h-183q-14 0 -24 9.5t-10 23.5t10 24t24 10h183v183q0 14 9.5 23.5t23.5 9.5t24 -9.5t10 -23.5v-183h183q14 0 23.5 -10t9.5 -24t-9.5 -23.5t-23.5 -9.5h-183v-183q0 -14 -10 -24t-24 -10t-23.5 10t-9.5 24z" />
<glyph unicode="," horiz-adv-x="230" d="M54 -90q0 8 8 13q51 28 47 77q-27 7 -27 35v21q0 14 9.5 23.5t23.5 9.5t23.5 -9.5t9.5 -23.5v-25q0 -77 -27 -104q-32 -32 -52 -32q-15 0 -15 15z" />
<glyph unicode="-" horiz-adv-x="408" d="M85 328q-19 0 -19 20q0 18 19 18h213q19 0 19 -18q0 -9 -5.5 -14.5t-13.5 -5.5h-213z" />
<glyph unicode="&#xad;" horiz-adv-x="408" d="M85 328q-19 0 -19 20q0 18 19 18h213q19 0 19 -18q0 -9 -5.5 -14.5t-13.5 -5.5h-213z" />
<glyph unicode="." horiz-adv-x="230" d="M82 50q0 21 14.5 35.5t35.5 14.5t35.5 -14.5t14.5 -35.5t-14.5 -35.5t-35.5 -14.5t-35.5 14.5t-14.5 35.5z" />
<glyph unicode="/" horiz-adv-x="422" d="M91 1q-22 11 -13 33l273 648q11 21 32 13q10 -4 13.5 -13t-0.5 -19l-273 -648q-6 -15 -22 -15q-7 0 -10 1z" />
<glyph unicode="0" horiz-adv-x="710" d="M132 106q-67 100 -67 244t67 245q73 105 175 105t175 -105q68 -105 68 -245t-68 -244q-72 -106 -175 -106t-175 106zM173 567q-59 -89 -59 -217t59 -217q57 -84 134 -84q75 0 134 84q60 90 60 217t-60 217q-57 84 -134 84q-79 0 -134 -84z" />
<glyph unicode="1" horiz-adv-x="335" d="M169 24v605l-99 -58q-6 -4 -12 -4q-14 0 -21 12q-12 22 9 33l135 82q8 5 18.5 2t14.5 -11q4 -9 3 -18v-643q0 -10 -7 -17t-17 -7t-17 7t-7 17z" />
<glyph unicode="2" horiz-adv-x="590" d="M53 7q-16 19 1 36l327 295q60 55 60 134q0 68 -47 120q-53 59 -133 59q-70 0 -122 -46l-34 -31q-8 -7 -18 -7t-16 8q-7 8 -7 18t8 16l34 32q67 59 155 59q102 0 168 -75q60 -64 60 -153q0 -101 -75 -170l-280 -253h331q10 0 17 -7.5t7 -17.5t-7 -17t-17 -7h-390h-4 q-12 0 -18 7z" />
<glyph unicode="3" horiz-adv-x="610" d="M483 664q-1 -4 -5 -8l-181 -186q70 -14 120 -64q69 -69 69 -168t-70 -168q-70 -70 -168 -70t-167 70q-7 7 -7 17.5t7 17.5t17 7t18 -7q56 -54 132 -54q78 0 133 54q55 55 55 133t-55 132q-54 55 -132 55q-12 0 -20 10h-1q-8 7 -8 18t8 18l174 179h-268q-10 0 -17.5 7 t-7.5 18t7.5 18t17.5 7h327q11 0 18 -7t7 -18q0 -7 -3 -11z" />
<glyph unicode="4" horiz-adv-x="664" d="M456 24v120h-379h-1h-2q-10 0 -15 5q-8 6 -9 16.5t6 17.5l405 504l1 1q15 18 34 3q3 -2 8 -12v-3l1 -1v-3v-480h47q10 0 17.5 -7t7.5 -17t-7.5 -17t-17.5 -7h-47v-120q0 -10 -7.5 -17t-17.5 -7t-17 7t-7 17zM125 192h331v410z" />
<glyph unicode="5" horiz-adv-x="605" d="M238 0q-99 0 -168 69q-8 7 -8 17.5t8 17.5q8 8 18 8t18 -8q56 -54 132 -54q77 0 132 55t55 132q0 79 -54 133t-132 54t-133 -55q-8 -7 -18 -7t-17 7q-4 3 -6 8v1q-1 1 -1 3q-1 2 -1 8l1 2v3l34 282q0 11 10 18q6 6 16 6h326q10 0 17.5 -7t7.5 -18t-7 -18t-18 -7h-305 l-25 -208q55 32 119 32q99 0 167 -69q69 -68 69 -168t-69 -168q-71 -69 -168 -69z" />
<glyph unicode="6" horiz-adv-x="642" d="M64 269q2 163 68 278q83 146 245 152q10 1 17 -6t8 -17q0 -10 -7 -17.5t-17 -8.5q-131 -5 -204 -127q-33 -57 -50 -140q69 79 173 79q97 0 164.5 -68t67.5 -163q0 -96 -67.5 -163.5t-164.5 -67.5q-94 0 -161 65t-70 158q-2 15 -2 46zM115 231v-4q0 -5 2 -13q0 -5 -1 -7 q9 -67 60.5 -112.5t120.5 -45.5q76 0 130 53.5t54 128.5t-54 128.5t-130 53.5q-75 0 -128.5 -53.5t-53.5 -128.5z" />
<glyph unicode="7" horiz-adv-x="587" d="M181 2q-9 4 -13 13.5t-1 18.5l259 614h-338q-10 0 -17 7t-7 17t7 17t17 7h370q8 2 15 -1q10 -5 13 -15q2 -6 2 -8q0 -8 -4 -13l-271 -644q-7 -15 -22 -15q-6 0 -10 2z" />
<glyph unicode="8" horiz-adv-x="630" d="M137 555q0 60 42 102.5t103 42.5q60 0 103 -42.5t43 -102.5q0 -73 -60 -118q63 -26 102 -83t39 -127q0 -95 -66.5 -161t-160.5 -66t-160.5 66.5t-66.5 160.5q0 70 39 127t101 83q-58 45 -58 118zM103 227q0 -74 52.5 -126.5t126.5 -52.5q75 0 127 52.5t52 126.5 t-52 126.5t-127 52.5q-74 0 -126.5 -52.5t-52.5 -126.5zM185 555q0 -41 28.5 -69.5t68.5 -29.5q41 1 69.5 30t28.5 69t-28.5 68.5t-69.5 28.5q-40 0 -68.5 -28t-28.5 -69z" />
<glyph unicode="9" horiz-adv-x="642" d="M66 470q0 95 68 162.5t163 67.5q89 0 154.5 -58.5t75.5 -145.5q1 -1 1 -2.5t1 -2.5q2 -38 2 -60q0 -161 -67 -279q-85 -146 -245 -152h-1q-11 0 -18 6.5t-7 16.5q0 24 24 26q132 5 204 127q36 63 50 140q-67 -77 -174 -77q-96 0 -163.5 67.5t-67.5 163.5zM297 288 q77 0 130 53t53 129q0 75 -53.5 128t-129.5 53q-75 0 -128.5 -53t-53.5 -128q0 -76 53.5 -129t128.5 -53z" />
<glyph unicode=":" horiz-adv-x="240" d="M87 470q0 21 14.5 35.5t35.5 14.5t35.5 -14.5t14.5 -35.5t-14.5 -35.5t-35.5 -14.5t-35.5 14.5t-14.5 35.5zM87 50q0 21 14.5 35.5t35.5 14.5t35.5 -14.5t14.5 -35.5t-14.5 -35.5t-35.5 -14.5t-35.5 14.5t-14.5 35.5z" />
<glyph unicode=";" horiz-adv-x="240" d="M68 469q0 21 14.5 35.5t35.5 14.5t35.5 -14.5t14.5 -35.5t-14.5 -35.5t-35.5 -14.5t-35.5 14.5t-14.5 35.5zM59 -90q0 8 8 13q51 28 47 77q-27 7 -27 35v21q0 14 9.5 23.5t23.5 9.5t23.5 -9.5t9.5 -23.5v-25q0 -77 -27 -104q-32 -32 -52 -32q-15 0 -15 15z" />
<glyph unicode="&#x37e;" horiz-adv-x="240" d="M68 469q0 21 14.5 35.5t35.5 14.5t35.5 -14.5t14.5 -35.5t-14.5 -35.5t-35.5 -14.5t-35.5 14.5t-14.5 35.5zM59 -90q0 8 8 13q51 28 47 77q-27 7 -27 35v21q0 14 9.5 23.5t23.5 9.5t23.5 -9.5t9.5 -23.5v-25q0 -77 -27 -104q-32 -32 -52 -32q-15 0 -15 15z" />
<glyph unicode="&#x3c;" horiz-adv-x="620" d="M386 9l-316 318l-1 1q-4 4 -5 6l-1 2q-1 1 -1 3q-1 2 -1 5q-1 4 0 9q0 1 2 7q2 4 3 5l3 3l1 1l316 320q8 8 20.5 8t20.5 -8q17 -21 0 -42l-298 -299l298 -300q7 -8 7 -19.5t-7 -19.5q-7 -9 -21 -9q-11 0 -20 9z" />
<glyph unicode="=" horiz-adv-x="620" d="M107 214q-12 0 -20 8t-8 20q0 11 8 19t20 8h356q12 0 20 -8t8 -19q0 -12 -8 -20t-20 -8h-356zM107 430q-12 0 -20 8t-8 19q0 12 8 20t20 8h356q12 0 20 -8t8 -20q0 -11 -8 -19t-20 -8h-356z" />
<glyph unicode="&#x3e;" horiz-adv-x="620" d="M99 9q-7 8 -7 19.5t7 19.5l298 300l-298 299q-7 9 -7 21t7 21q8 8 20.5 8t20.5 -8l316 -320l1 -1q8 -8 8 -20q0 -10 -6 -18l-2 -2l-1 -1l-316 -318q-8 -9 -20 -9t-21 9z" />
<glyph unicode="?" horiz-adv-x="534" d="M207 162v125v3v1q0 10 7 16.5t16 6.5q70 0 119.5 49.5t49.5 119.5q0 71 -49 120t-120 50q-47 0 -85.5 -23t-60.5 -62q-5 -8 -14.5 -10.5t-17.5 2.5q-9 5 -11 14.5t3 17.5q28 50 77.5 79t108.5 29q89 0 152.5 -63.5t63.5 -153.5q0 -82 -55.5 -143.5t-136.5 -70.5v-107 q0 -10 -7 -16.5t-17 -6.5q-9 0 -16 6.5t-7 16.5zM207 23v22q0 10 7 17t16 7q10 0 17 -7t7 -17v-22q0 -10 -7 -16.5t-17 -6.5q-9 0 -16 6.5t-7 16.5z" />
<glyph unicode="@" horiz-adv-x="980" d="M53 351q0 146 102.5 248t248.5 102t248 -102.5t102 -247.5q0 -88 -37 -160l-5 -7q-4 -7 -11.5 -16t-17.5 -19.5t-25 -19.5t-32 -14q-7 -2 -20 -2q-37 0 -57 27q-16 24 -16 48v34q-54 -60 -129 -60q-74 0 -126.5 55.5t-52.5 133.5q0 77 52.5 132t126.5 55t125.5 -55 t51.5 -132v-8v-5v-147h1q-1 -8 6 -22q5 -7 18 -7h8q20 5 36.5 22.5t21.5 29.5q33 60 33 137q0 124 -88.5 212.5t-212.5 88.5t-213 -88.5t-89 -212.5q0 -125 89 -213.5t213 -88.5q46 0 75 8q10 2 18.5 -2.5t9.5 -14.5q4 -10 -1.5 -18.5t-15.5 -10.5q-42 -11 -86 -11 q-146 0 -248.5 102.5t-102.5 248.5zM277 351q0 -57 37 -97t90 -40q52 0 90 40t38 97t-38 97.5t-90 40.5t-89.5 -40.5t-37.5 -97.5z" />
<glyph unicode="A" horiz-adv-x="646" d="M549 16l-62 165h-319l-62 -165q-6 -16 -23 -16q-1 0 -4 0.5t-5 0.5q-9 4 -13.5 13.5t-0.5 18.5l243 649q7 15 24 15q19 0 24 -15l243 -649q4 -9 0 -18.5t-13 -13.5q-2 0 -5 -0.5t-4 -0.5q-17 0 -23 16zM328 606l-142 -376h283z" />
<glyph unicode="B" horiz-adv-x="594" d="M104 24v652q0 10 7 17t17 7h3h153q72 0 123 -51t51 -124q0 -82 -67 -136q60 -21 98.5 -72.5t38.5 -116.5q0 -83 -58.5 -141.5t-141.5 -58.5h-197h-3h-1q-10 0 -16.5 7t-6.5 17zM153 49h175q62 0 106 44t45 107q-1 62 -45 106.5t-106 44.5h-175v-302zM153 401h131 q52 0 88.5 36.5t36.5 87.5q0 52 -36.5 89t-88.5 37h-131v-250z" />
<glyph unicode="C" horiz-adv-x="771" d="M73 353q0 149 106.5 252.5t257.5 104.5q126 0 226 -77q8 -7 9.5 -17.5t-5.5 -17.5q-6 -9 -16.5 -10t-17.5 5q-87 68 -196 68q-131 0 -223 -90t-92 -218q0 -126 92 -215t223 -89q114 0 194 68q9 6 19.5 4.5t15.5 -10.5q7 -7 6 -18t-9 -17q-99 -76 -226 -76 q-151 0 -257.5 103.5t-106.5 249.5z" />
<glyph unicode="D" horiz-adv-x="719" d="M259 0h-129h-4q-9 1 -15.5 7.5t-6.5 16.5v652q0 10 7 17t17 7h3h128q145 0 247.5 -103t102.5 -248t-102.5 -247t-247.5 -102zM153 49h106q125 0 213 88t88 212q0 125 -88 213t-213 89h-106v-602z" />
<glyph unicode="E" horiz-adv-x="593" d="M104 24v652q0 10 7 17t17 7h2h358q10 0 17 -7t7 -17q0 -11 -7 -18t-17 -7h-335v-277h293q10 0 17 -7.5t7 -17.5t-7 -17t-17 -7h-293v-276h335q10 0 17 -7t7 -18q0 -10 -7 -17t-17 -7h-357h-3h-2q-9 1 -15.5 7.5t-6.5 16.5z" />
<glyph unicode="F" horiz-adv-x="605" d="M104 24v652q0 22 23 24h4h358q10 0 17 -7t7 -17t-7 -17.5t-17 -7.5h-336v-277h294q11 0 18 -7t7 -18q0 -10 -7.5 -17t-17.5 -7h-294v-301q0 -10 -7.5 -17t-17.5 -7t-17 7t-7 17z" />
<glyph unicode="G" horiz-adv-x="814" d="M622 315h-191q-11 0 -18 7t-7 17q0 11 7 18t18 7h216h3q9 -1 15.5 -8t6.5 -17v-240v-4q-2 -12 -9 -18q-97 -77 -226 -77q-151 1 -257.5 104.5t-106.5 251.5q0 146 106.5 250t257.5 104q125 0 227 -79q7 -5 8 -15.5t-5 -18.5q-14 -18 -35 -4q-83 68 -195 68 q-131 0 -223 -89.5t-92 -215.5q0 -128 92 -217.5t223 -89.5q103 0 185 60v206z" />
<glyph unicode="H" horiz-adv-x="709" d="M513 24v302h-360v-302q0 -10 -7.5 -17t-17.5 -7t-17 7t-7 17v652q0 10 7 17t17 7t17.5 -7t7.5 -17v-302h360v302q0 10 7 17t17 7t17.5 -7t7.5 -17v-652q0 -10 -7.5 -17t-17.5 -7t-17 7t-7 17z" />
<glyph unicode="I" horiz-adv-x="305" d="M111 24v652q0 10 7 17t17 7t17.5 -7t7.5 -17v-652q0 -10 -7.5 -17t-17.5 -7t-17 7t-7 17z" />
<glyph unicode="J" horiz-adv-x="594" d="M46 164q-3 10 1.5 19t14.5 12t19 -1.5t11 -13.5q19 -59 68.5 -95.5t111.5 -35.5q78 0 133.5 55t55.5 133v439q0 10 7 17t17 7t17 -7t7 -17v-439q0 -99 -69.5 -168t-167.5 -69q-78 0 -140.5 46t-85.5 118z" />
<glyph unicode="K" horiz-adv-x="715" d="M104 24v649q0 10 7 17.5t17 7.5t17.5 -7t7.5 -18v-405l423 423q8 7 18 7t16 -7q8 -7 8 -17t-8 -18l-268 -268l274 -348q13 -18 -4 -35q-6 -5 -16 -5q-12 0 -18 9l-271 344l-154 -154v-175q0 -10 -7.5 -17t-17.5 -7t-17 7t-7 17z" />
<glyph unicode="L" horiz-adv-x="563" d="M488 0h-358h-2q-10 0 -17 7t-7 17v652q0 10 7 17t17 7t17.5 -7t7.5 -17v-627h335q10 0 17.5 -7.5t7.5 -17.5t-7.5 -17t-17.5 -7z" />
<glyph unicode="M" horiz-adv-x="844" d="M644 24v576l-224 -311q-7 -11 -20 -11h-2q-14 0 -21 11l-224 310v-575q0 -10 -7 -17t-17 -7t-17.5 7t-7.5 17v648q0 12 10 19l2 2q20 13 34 -6l249 -345l248 345q5 8 15.5 9.5t18.5 -3.5q5 -5 7 -8q4 -8 4 -13v-648q0 -10 -7 -17t-17 -7t-17 7t-7 17z" />
<glyph unicode="N" horiz-adv-x="771" d="M575 13l-420 584v-573q0 -10 -7 -17t-17 -7t-17 7t-7 17v642q-5 16 9 27q8 5 18.5 3.5t15.5 -9.5l424 -588v570q0 10 7 17t17 7t17.5 -7t7.5 -17v-645q0 -10 -7.5 -17t-17.5 -7q-12 0 -19 9z" />
<glyph unicode="O" horiz-adv-x="850" d="M73 355q1 148 99 251.5t239 103.5q140 0 237 -103.5t98 -251.5q-1 -148 -98 -251.5t-237 -103.5q-141 0 -239 103.5t-99 251.5zM122 355q0 -128 84.5 -217t204.5 -89q116 0 200 89.5t85 216.5q-1 129 -84.5 217t-200.5 88q-120 0 -204.5 -88t-84.5 -217z" />
<glyph unicode="P" horiz-adv-x="583" d="M104 24v652q0 10 7 17t17 7h3h195q82 0 140.5 -58.5t58.5 -141.5q0 -82 -58.5 -140.5t-140.5 -58.5l-173 -2v-275q0 -10 -7.5 -17t-17.5 -7t-17 7t-7 17zM153 348h173q62 1 106.5 45.5t44.5 106.5t-44.5 106.5t-106.5 44.5h-173v-303z" />
<glyph unicode="Q" horiz-adv-x="844" d="M804 -49q6 -8 5 -18.5t-8 -17.5q-77 -59 -158 -59h-1q-77 0 -174 57q-39 22 -84 22q-30 0 -58 -8t-35 -14h-1q-14 -7 -28 2h-1q-6 9 -7 11q-4 9 -1 18.5t12 14.5l93 42q-125 17 -208.5 118t-83.5 235q0 147 98 251t238 105q140 -1 238 -105t98 -251q0 -109 -57 -197.5 t-149 -130.5l-101 -47q35 -7 61 -22q86 -52 150 -52q62 0 127 50q20 14 35 -4zM116 354q0 -127 84 -216.5t202 -89.5t202 89.5t84 216.5t-84 216t-202 89t-202 -89t-84 -216z" />
<glyph unicode="R" horiz-adv-x="625" d="M471 43q-19 36 -19 115q0 64 -57 106q-41 29 -81 35q-1 1 -3 1q-1 1 -2 1h-170v-277q0 -10 -7.5 -17t-17.5 -7t-17 7t-7 17v652q0 9 6.5 16t15.5 8h2h3h195q83 0 141 -58.5t58 -141.5q0 -59 -31.5 -108t-83.5 -73l10 -5q40 -23 67 -62t27 -94q0 -54 9 -81q3 -11 10 -17 q21 2 27 -16q5 -24 -16 -32h-4q-4 -1 -8 -1h-2q-29 0 -45 32zM463 500q0 63 -44.5 107t-106.5 44h-173v-302h168h9q61 2 104 46t43 105z" />
<glyph unicode="S" horiz-adv-x="667" d="M75 100q-16 14 -3 31q6 7 15 8t16 -5q113 -91 230 -90q92 0 154 46q60 43 60 104q0 57 -57 96q-56 37 -162 57h-2q-107 20 -165 59q-72 47 -72 122q0 78 73 131q70 51 169 51q43 0 86.5 -14.5t67.5 -28t62 -38.5q18 -12 6 -31q-5 -8 -13.5 -9.5t-16.5 3.5 q-36 23 -58.5 36t-60 25.5t-73.5 12.5q-84 0 -143 -42q-55 -41 -55 -96q1 -50 52 -85q49 -34 150 -53h2q115 -21 178 -64q77 -50 77 -132q0 -83 -79 -140q-76 -55 -180 -55q-132 1 -258 101z" />
<glyph unicode="T" horiz-adv-x="648" d="M285 24v627h-211q-10 0 -17 7.5t-7 17.5t7 17t17 7h470q10 0 17 -7t7 -17t-7 -17.5t-17 -7.5h-211v-627q0 -10 -7 -17t-17 -7t-17 7t-7 17z" />
<glyph unicode="U" horiz-adv-x="814" d="M105 283v393q0 10 7 17t17 7t17.5 -7t7.5 -17v-393q0 -97 68.5 -165t164.5 -69q98 1 166.5 69t68.5 165v393q0 10 7 17t17 7t17.5 -7t7.5 -17v-393q0 -117 -83 -200t-201 -83q-116 0 -199 83t-83 200z" />
<glyph unicode="V" horiz-adv-x="750" d="M346 2q-9 3 -12 12q-1 0 -1 2l-1 1l-271 645q-4 9 0 18.5t13 13.5t18.5 0.5t13.5 -12.5l250 -596l251 596q3 9 12.5 12.5t18.5 -0.5t13 -13.5t0 -18.5l-271 -640q-2 -15 -14 -20h-1q-6 -2 -9 -2q-7 0 -9 1z" />
<glyph unicode="W" horiz-adv-x="1102" d="M78 694q9 4 18.5 0.5t13.5 -12.5l250 -595l178 421q8 15 23 15q17 0 25 -15l177 -421l250 595q11 22 33 12q9 -4 12.5 -13.5t-0.5 -18.5l-272 -646q-6 -14 -20 -16h-2h-3q-7 0 -12 4l-4 4q-2 2 -4 6q0 2 -1 3l-178 423l-179 -423q0 -3 -2 -5q-1 -3 -5 -7l-2 -1 q-5 -4 -14 -4q-8 0 -15 5l-2 2l-1 1q-4 4 -6 12l-270 642q-4 9 -0.5 18.5t12.5 13.5z" />
<glyph unicode="X" horiz-adv-x="722" d="M86 5q-20 15 -4 34l225 309l-225 309q-7 8 -5.5 18.5t9.5 15.5q8 7 18.5 5.5t15.5 -9.5l217 -298l217 298q16 19 34 4q8 -5 10 -15.5t-5 -18.5l-226 -309l226 -309q7 -8 5 -18t-10 -16q-8 -5 -14 -5q-12 0 -20 11l-217 297l-217 -297q-6 -11 -19 -11q-7 0 -15 5z" />
<glyph unicode="Y" horiz-adv-x="604" d="M296 24v312l-235 321q-13 21 5 34q8 7 18.5 5.5t15.5 -9.5l219 -301l220 301q5 8 15.5 9.5t18.5 -5.5q8 -5 9.5 -15.5t-4.5 -18.5l-234 -319v-314q0 -10 -7 -17t-17 -7t-17 7t-7 17z" />
<glyph unicode="Z" horiz-adv-x="667" d="M83 5q-15 10 -8 28q3 6 6 9l441 606h-424q-10 0 -17 7t-7 17t7 17t17 7h465q10 3 20 -4q4 -2 7 -5q12 -14 0 -30l-445 -608h426q10 0 17 -7t7 -18q0 -10 -7 -17t-17 -7h-473h-2q-1 0 -3.5 0.5t-3.5 0.5q-4 2 -6 4z" />
<glyph unicode="[" d="M98 -104v778q0 10 8 18t18 8h232q8 0 13.5 -6t5.5 -13t-5.5 -13t-13.5 -6h-212v-754h212q8 0 13.5 -6t5.5 -13t-5.5 -13t-13.5 -6h-232q-10 0 -18 8t-8 18z" />
<glyph unicode="\" horiz-adv-x="448" d="M372 3q-3 -1 -10 -1q-16 0 -22 15l-273 648q-4 10 -0.5 19t13.5 13q21 8 32 -13l273 -648q9 -22 -13 -33z" />
<glyph unicode="]" d="M332 674v-778q0 -10 -8 -18t-18 -8h-232q-8 0 -13.5 6t-5.5 13t5.5 13t13.5 6h212v754h-212q-8 0 -13.5 6t-5.5 13t5.5 13t13.5 6h232q10 0 18 -8t8 -18z" />
<glyph unicode="^" horiz-adv-x="500" d="M249 660l-120 -157q-10 -14 -35 -14q-14 0 -14 11q0 6 5 13l133 176q15 18 28 18h8q13 0 28 -18l133 -176q5 -7 5 -13q0 -11 -15 -11q-26 0 -36 14z" />
<glyph unicode="_" horiz-adv-x="600" d="M-2 -160q-9 0 -15.5 6.5t-6.5 15.5t6.5 15.5t15.5 6.5h604q9 0 15.5 -6.5t6.5 -15.5t-6.5 -15.5t-15.5 -6.5h-604z" />
<glyph unicode="`" horiz-adv-x="500" d="M286 592q-18 0 -32 13l-80 77q-11 11 -11 18q0 8 14 15.5t28 7.5q16 0 28 -18l62 -93q4 -6 4 -11q0 -9 -13 -9z" />
<glyph unicode="a" horiz-adv-x="619" d="M480 490q10 0 17 -7t7 -17v-442q0 -10 -7 -17t-17 -7t-17 7t-7 17v73q-32 -45 -80.5 -71t-103.5 -26q-96 0 -164 72t-68 173t68 173t164 72q55 0 103.5 -26t80.5 -70v72q0 10 7 17t17 7zM272 48q76 0 130 57.5t54 139.5t-54 140t-130 58q-75 0 -129.5 -58t-54.5 -140 t54.5 -139.5t129.5 -57.5z" />
<glyph unicode="b" horiz-adv-x="660" d="M93 24v210v10v10v422q0 10 7 17t17 7t17.5 -7t7.5 -17v-282q33 44 82 70t106 26q99 0 168 -72t69 -174q0 -101 -69 -172.5t-168 -71.5q-57 0 -106 25.5t-82 69.5v-71q0 -10 -7.5 -17t-17.5 -7t-17 7t-7 17zM142 252v-8q0 -81 55.5 -138t132.5 -57q78 0 133 57t55 138 q0 82 -55 139.5t-133 57.5q-76 0 -130.5 -55t-57.5 -134z" />
<glyph unicode="c" horiz-adv-x="571" d="M310 0q-105 0 -178.5 71.5t-73.5 174.5q0 102 73.5 173t178.5 71q88 0 156 -54q8 -5 9 -15t-6 -18q-15 -17 -33 -4q-55 44 -126 44q-85 0 -144.5 -58t-59.5 -139q0 -83 59.5 -140.5t144.5 -57.5q70 0 126 43q18 13 33 -4q16 -19 -5 -35q-67 -52 -154 -52z" />
<glyph unicode="d" horiz-adv-x="660" d="M485 24v71q-33 -44 -82 -69.5t-106 -25.5q-99 0 -168 71.5t-69 172.5q0 102 69 174t168 72q57 0 106 -26t82 -70v282q0 10 7.5 17t17.5 7t17 -7t7 -17v-422v-10v-220q0 -10 -7 -17t-17 -7t-17.5 7t-7.5 17zM297 49q76 0 130.5 54.5t57.5 132.5v16q-3 79 -57.5 134 t-130.5 55q-77 0 -132.5 -57.5t-55.5 -139.5q0 -81 55.5 -138t132.5 -57z" />
<glyph unicode="e" horiz-adv-x="609" d="M296 0q-99 0 -168.5 71.5t-69.5 172.5q0 102 69.5 174t168.5 72q94 0 161 -65.5t75 -162.5v-1v-3q0 -10 -7 -16t-17 -6h-402q4 -80 59 -134t131 -54q49 0 91 24t67 65q12 20 32 8q20 -14 8 -34q-32 -51 -84.5 -81t-113.5 -30zM296 442q-69 0 -121 -44.5t-66 -114.5h371 q-12 69 -64 114t-120 45z" />
<glyph unicode="f" horiz-adv-x="362" d="M285 699q10 0 17 -7.5t7 -17.5t-7 -17t-17 -7q-46 0 -62 -19q-20 -22 -20 -81v-52h69q10 0 17.5 -7t7.5 -17t-7.5 -17.5t-17.5 -7.5h-69v-426q0 -10 -7 -17t-17 -7t-17.5 7t-7.5 17v426h-65q-10 0 -17 7.5t-7 17.5t7 17t17 7h65v52q2 78 32 114q32 35 99 35z" />
<glyph unicode="g" horiz-adv-x="660" d="M521 466v-427q0 -95 -67.5 -162.5t-163.5 -67.5q-49 0 -102 23q-20 14 -10 32q11 23 32 11q38 -18 80 -18q76 0 129.5 53t53.5 129v60q-31 -45 -79 -70.5t-104 -25.5q-96 0 -163 71.5t-67 172.5q0 100 67.5 171.5t162.5 71.5q55 0 103.5 -26t79.5 -70v72q0 10 7.5 17 t17.5 7q9 0 16 -7t7 -17zM290 50q76 0 129.5 57.5t53.5 139.5t-53.5 138.5t-129.5 56.5q-75 0 -128.5 -57t-53.5 -138q0 -82 53.5 -139.5t128.5 -57.5z" />
<glyph unicode="h" horiz-adv-x="613" d="M453 24v273q0 63 -45 103.5t-111 40.5q-65 0 -110 -40.5t-45 -103.5v-273v-3v-3l-1 -1l-2 -4q-5 -9 -15 -12q0 -1 -2 -1h-2h-3q-11 0 -19 8q-3 4 -4 8q-1 3 -1 8v273v8v371q0 10 7 17t17 7t17.5 -7t7.5 -17v-258q61 72 155 72q86 0 145.5 -54.5t59.5 -138.5v-273 q0 -10 -7.5 -17t-17.5 -7t-17 7t-7 17z" />
<glyph unicode="i" horiz-adv-x="281" d="M94 24v442q0 10 7 17t17 7q11 0 18 -7t7 -17v-442q0 -10 -7.5 -17t-17.5 -7t-17 7t-7 17zM94 603v23q0 10 7 17t17 7t17.5 -7t7.5 -17v-23q0 -11 -7.5 -18.5t-17.5 -7.5t-17 7.5t-7 18.5z" />
<glyph unicode="j" horiz-adv-x="249" d="M57 603v23q0 10 8 17t17 7q10 0 17 -7t7 -17v-23q0 -10 -7 -17.5t-17 -7.5q-9 0 -17 7.5t-8 17.5zM-5 -168q0 11 7 18t17 7q14 0 25 11t11 26v571q0 10 7.5 17.5t17.5 7.5t17 -7.5t7 -17.5v-571q0 -36 -24.5 -60.5t-60.5 -24.5q-10 0 -17 6.5t-7 16.5z" />
<glyph unicode="k" horiz-adv-x="560" d="M93 24v652q0 10 7 17t17 7t17.5 -7t7.5 -17v-471l290 289q17 17 34 0q8 -7 8 -16.5t-8 -17.5l-189 -189l190 -231q15 -18 -2 -35q-6 -5 -16 -5q-14 0 -19 9l-188 227l-100 -100v-112q0 -10 -7.5 -17t-17.5 -7t-17 7t-7 17z" />
<glyph unicode="l" horiz-adv-x="249" d="M100 24v652q0 10 7 17t17 7t17.5 -7t7.5 -17v-652q0 -10 -7.5 -17t-17.5 -7t-17 7t-7 17z" />
<glyph unicode="m" horiz-adv-x="951" d="M794 23v267q-2 63 -46 107.5t-106 44.5t-106.5 -45t-44.5 -107v-267v-3l-1 -2v-2q-2 -7 -12 -13q-6 -3 -12 -3h-3h-2l-2 1l-6 3q-1 0 -3 2l-3 3l-2 2q0 1 -1 2l-1 2q0 2 -1 3v3v2v267q0 63 -44 107.5t-107 44.5t-107 -44.5t-44 -107.5v-267q0 -13 -11 -19q-3 -3 -6 -3 q-1 -1 -4 -1h-3h-3q-15 2 -20 18v5v267v8v168q0 10 7 16.5t16 6.5q10 0 17 -6.5t7 -16.5v-47q59 70 151 70q56 0 102.5 -28.5t72.5 -75.5q27 47 74 75.5t102 28.5q82 0 140.5 -58.5t58.5 -140.5v-267q0 -9 -7 -16t-17 -7t-16.5 7t-6.5 16z" />
<glyph unicode="n" horiz-adv-x="613" d="M443 24v266q0 62 -44 106.5t-107 44.5q-62 0 -106 -44t-46 -107v-266v-4q-2 -8 -5 -11q-6 -9 -18 -9h-6q-11 3 -16 13q-1 1 -1 3l-1 2v6v266v8v167q0 10 7 17t17 7t16.5 -7t6.5 -17v-47q59 71 152 71q82 0 140.5 -58.5t58.5 -140.5v-266q0 -10 -7 -17t-17 -7t-17 7t-7 17 z" />
<glyph unicode="o" horiz-adv-x="625" d="M70 245q0 100 68 172.5t164 72.5t164 -72.5t68 -172.5t-68 -172.5t-164 -72.5t-164 72.5t-68 172.5zM118 245q0 -81 54.5 -139t129.5 -58t129.5 58t54.5 139q0 82 -54.5 140t-129.5 58t-129.5 -58t-54.5 -140z" />
<glyph unicode="p" horiz-adv-x="660" d="M93 -181v418v10v10v209q0 10 7 17t17 7t17.5 -7t7.5 -17v-71q32 44 81 69.5t105 25.5q99 0 168 -71t69 -172q0 -100 -69 -172t-168 -72q-56 0 -105 26t-81 70v-280q0 -10 -7.5 -17t-17.5 -7t-17 7t-7 17zM142 255v-8q0 -81 55 -138t131 -58q78 1 133 58t55 138t-55 137.5 t-133 56.5q-74 0 -128.5 -54t-57.5 -132z" />
<glyph unicode="q" horiz-adv-x="660" d="M483 -181v280q-33 -45 -82.5 -71t-105.5 -26q-97 1 -166 73t-69 172t69 171.5t166 71.5q57 0 106 -26t82 -70v72q0 10 7 17t17 7q11 0 18 -7t7 -17v-209v-10v-10v-418q0 -10 -7 -17t-18 -7q-10 0 -17 7t-7 17zM109 247q0 -81 54.5 -138t131.5 -58q78 1 133 58t55 138 t-55 137.5t-133 56.5q-77 0 -131.5 -56.5t-54.5 -137.5z" />
<glyph unicode="r" horiz-adv-x="439" d="M93 24v441q0 10 7 17t18 7q9 0 16 -7t7 -17v-108q4 8 7 12q77 120 196 120q10 0 17 -7t7 -17t-7 -17t-17 -7q-80 0 -142 -80q-36 -48 -59 -114q-2 -4 -2 -8v-215q0 -10 -7 -17t-16 -7q-11 0 -18 7t-7 17z" />
<glyph unicode="s" horiz-adv-x="492" d="M62 70q-17 15 -3 32q6 8 16 9t18 -6q78 -57 150 -57q56 0 93 30q37 25 37 60q-1 32 -35 60q-31 24 -104 36l-2 1q-78 14 -111 38q-53 31 -53 88t53 96q48 33 120 33q29 0 58.5 -9.5t45 -18t42.5 -25.5q8 -6 10 -16t-3 -18t-15 -10t-18 3q-25 17 -38 24.5t-36.5 16 t-45.5 8.5q-58 0 -93 -28q-31 -25 -31 -56q0 -27 28 -49q35 -24 100 -34h2q65 -10 119 -40q55 -36 55 -100q0 -57 -56 -99q-53 -39 -122 -39q-95 1 -181 70z" />
<glyph unicode="t" horiz-adv-x="400" d="M240 490q9 0 16.5 -7.5t7.5 -16.5t-7.5 -16.5t-16.5 -7.5h-63v-357q0 -16 12.5 -26t23.5 -10q9 0 17 -8t8 -17t-8 -16.5t-17 -7.5q-37 0 -61.5 24t-24.5 61v357h-61q-11 0 -16.5 4t-6.5 8t-1 12t1 12t6.5 8t16.5 4h61v182q0 9 7.5 16.5t16.5 7.5q10 0 18 -7.5t8 -16.5 v-182h63z" />
<glyph unicode="u" horiz-adv-x="613" d="M83 200v267q0 10 7 17t17 7t17 -7t7 -17v-267q0 -63 44 -107t106 -45q63 1 107.5 45t44.5 107v267q0 10 7.5 17t16.5 7q11 0 18 -7t7 -17v-267q0 -83 -58.5 -141.5t-142.5 -58.5q-82 0 -140 58.5t-58 141.5z" />
<glyph unicode="v" horiz-adv-x="582" d="M255 2q-1 0 -5 2q-6 6 -8 11l-184 438q-4 9 0 18t12 13q9 4 18.5 0t12.5 -13l163 -386l163 386q3 9 12.5 13t18.5 0q21 -9 12 -31l-183 -434q-1 -6 -6 -12q-6 -7 -16 -7q-5 0 -8 1q-1 0 -2 1z" />
<glyph unicode="w" horiz-adv-x="861" d="M261 2q-2 0 -4 2q-7 3 -10 11l-184 438q-4 9 0 18t12 13q9 4 18.5 0t12.5 -13l163 -386l113 269q7 15 23 15q17 0 24 -15l113 -269l162 386q4 9 13.5 13t17.5 0q9 -4 13 -13t0 -18l-183 -436q-3 -7 -9 -12q-7 -5 -12 -5h-2h-3q-16 2 -19 15l-1 1l-114 271l-113 -270 q-1 0 -1 -2q-5 -15 -21 -15q-3 0 -9 2z" />
<glyph unicode="x" horiz-adv-x="570" d="M79 5q-17 14 -5 33l150 205l-150 206q-12 20 5 34q7 5 17.5 3.5t15.5 -9.5l142 -193l141 193q6 8 15.5 9.5t16.5 -3.5q19 -13 7 -34l-151 -206l151 -205q13 -20 -7 -33q-5 -5 -12 -5q-14 0 -20 10l-141 193l-142 -193q-6 -10 -19 -10q-6 0 -14 5z" />
<glyph unicode="y" horiz-adv-x="588" d="M52 201v266q0 10 7 16.5t16 6.5q11 0 18 -6.5t7 -16.5v-266q0 -63 44 -107t106 -44q63 0 107 44t45 107v266q0 8 4 12v1l1 2q1 0 1 0.5t1 0.5q3 4 9 6h2l1 1h2h3h3q4 -1 12 -5q5 -5 6 -8q3 -5 3 -10v-266v-9v-153q0 -96 -68 -163t-165 -67q-50 0 -101 23q-20 13 -10 32 q9 18 31 12q38 -19 80 -19q76 0 130 53t55 129v32q-62 -70 -152 -70q-82 1 -140 59.5t-58 140.5z" />
<glyph unicode="z" horiz-adv-x="554" d="M358 438h-273q-10 0 -17 7t-7 17t7 17t17 7h317q8 1 17 -4l3 -3l1 -1q10 -10 5 -22q-2 -9 -9 -13l-288 -395h274q10 0 17 -7t7 -17t-7 -17t-17 -7h-320q-17 0 -22 14l-1 1q-1 3 -1 9v1q0 11 8 17z" />
<glyph unicode="{" horiz-adv-x="480" d="M406 -139q-119 24 -160 70.5t-41 130.5v79q0 64 -26.5 95.5t-99.5 31.5q-24 0 -24 19t24 19q73 0 99.5 31.5t26.5 95.5v79q0 84 41 130.5t160 70.5q9 2 15 -2.5t6 -13.5q0 -12 -12 -16q-104 -27 -132.5 -61.5t-28.5 -113.5v-75q0 -63 -26.5 -96t-77.5 -48 q54 -18 79 -49.5t25 -94.5v-75q0 -79 28.5 -113.5t132.5 -61.5q12 -4 12 -16q0 -9 -6 -13.5t-15 -2.5z" />
<glyph unicode="|" horiz-adv-x="286" d="M121 -110v890q0 9 6.5 15.5t15.5 6.5t15.5 -6.5t6.5 -15.5v-890q0 -9 -6.5 -15.5t-15.5 -6.5t-15.5 6.5t-6.5 15.5z" />
<glyph unicode="}" horiz-adv-x="480" d="M74 713q119 -24 160 -70.5t41 -130.5v-79q0 -64 26.5 -95.5t99.5 -31.5q24 0 24 -19t-24 -19q-73 0 -99.5 -31.5t-26.5 -95.5v-79q0 -84 -41 -130.5t-160 -70.5q-9 -2 -15 2.5t-6 13.5q0 12 12 16q104 27 132.5 61.5t28.5 113.5v75q0 63 26.5 96t77.5 48q-54 18 -79 49.5 t-25 94.5v75q0 79 -28.5 113.5t-132.5 61.5q-12 4 -12 16q0 9 6 13.5t15 2.5z" />
<glyph unicode="~" horiz-adv-x="460" d="M121 254q-7 -14 -18 -14q-18 0 -18 17q0 6 2 12q14 42 32.5 58.5t46.5 16.5q20 0 66 -20.5t62 -20.5t26 8.5t19 29.5q7 14 18 14q18 0 18 -17q0 -6 -2 -12q-14 -42 -32.5 -58.5t-46.5 -16.5q-20 0 -65.5 20.5t-62.5 20.5q-16 0 -26 -8.5t-19 -29.5z" />
<glyph unicode="&#xa2;" horiz-adv-x="581" d="M219 21l17 82q-78 27 -126 96t-48 154v2q0 108 76 187.5t184 79.5h15l13 68q4 20 24 20q12 0 19.5 -9t4.5 -22l-13 -64q66 -16 129 -75q9 -9 9 -20t-7 -18t-17 -7q-11 0 -19 8q-54 53 -107 66l-84 -432q18 -3 36 -3q87 0 160 73q9 9 19 9q9 0 15.5 -7t6.5 -16t-7 -16 q-84 -89 -197 -89q-26 0 -39 2l-16 -80q-4 -20 -24 -20q-12 0 -19.5 9t-4.5 22zM115 355q0 -70 37 -126t96 -80l82 427h-9q-87 0 -146.5 -63.5t-59.5 -155.5v-2z" />
<glyph unicode="&#xa3;" horiz-adv-x="644" d="M66 13q0 11 12 14l78 18v260h-66q-10 0 -17 7t-7 17t7 17t17 7h66v118q0 116 65 181q58 58 150 58q121 0 200 -93q7 -9 7 -19t-7 -17t-18 -7t-20 9q-34 39 -71 59.5t-92 20.5q-70 0 -113 -43q-50 -50 -50 -148v-119h278q10 0 17 -7t7 -17t-7 -17t-17 -7h-278v-258h354 q10 0 17 -7t7 -17t-7 -16.5t-17 -6.5h-482q-13 0 -13 13z" />
<glyph unicode="&#xa5;" horiz-adv-x="686" d="M295 24v143h-154q-12 0 -20 8t-8 20q0 11 8 19t20 8h154v100h-154q-12 0 -20 8t-8 19q0 12 8 20t20 8h124l-205 280q-13 21 5 34q8 7 18.5 5.5t15.5 -9.5l219 -301l220 301q5 8 15.5 9.5t18.5 -5.5q8 -5 9.5 -15.5t-4.5 -18.5l-206 -280h126q12 0 20 -8t8 -20 q0 -11 -8 -19t-20 -8h-154v-100h154q12 0 20 -8t8 -19q0 -12 -8 -20t-20 -8h-154v-143q0 -10 -7 -17t-17 -7t-17 7t-7 17z" />
<glyph unicode="&#xa9;" horiz-adv-x="830" d="M414 -12q-151 0 -256 105.5t-105 254.5v2q0 149 106 255.5t257 106.5t256 -105.5t105 -254.5v-2q0 -149 -106 -255.5t-257 -106.5zM414 16q141 0 237 97.5t96 236.5v2q0 138 -95 235t-236 97t-237 -97.5t-96 -236.5v-2q0 -138 95 -235t236 -97zM419 166q-77 0 -129.5 55 t-52.5 133v2q0 77 53 133t130 56q72 0 129 -50q9 -7 9 -18q0 -9 -6.5 -15t-15.5 -6q-7 0 -16 7q-49 42 -101 42q-59 0 -98.5 -43.5t-39.5 -104.5v-2q0 -61 40.5 -105t98.5 -44q57 0 106 44q8 5 14 5q8 0 14 -6t6 -14q0 -10 -7 -15q-62 -54 -134 -54z" />
<glyph unicode="&#xae;" horiz-adv-x="416" d="M208 360q-73 0 -123.5 51t-50.5 123v1q0 72 51 123.5t123 51.5q73 0 123.5 -51t50.5 -123v-1q0 -72 -51 -123.5t-123 -51.5zM208 379q65 0 109.5 46t44.5 110v1q0 64 -44.5 109.5t-109.5 45.5t-109.5 -46t-44.5 -110v-1q0 -64 44.5 -109.5t109.5 -45.5zM264 435 q4 -10 14 -10h1q1 0 2 0.5t2 0.5q6 2 4 10q-2 5 -8 5l-3 5q-3 7 -3 25q0 34 -30 50q-2 0 -3 1q36 17 36 57q0 26 -18 44.5t-44 18.5h-61h-1h-1q-7 0 -7 -8v-204q0 -8 8 -8t8 8v87h53l1 -1q16 -4 26 -11q18 -13 18 -34q0 -25 6 -36zM261 579q0 -19 -13.5 -33t-32.5 -14h-3 h-52v94h54q20 0 33.5 -14t13.5 -33z" />
<glyph unicode="&#xb4;" horiz-adv-x="500" d="M214 592q-13 0 -13 9q0 5 4 11l62 93q12 18 28 18q14 0 28 -7.5t14 -15.5q0 -7 -11 -18l-80 -77q-14 -13 -32 -13z" />
<glyph unicode="&#x2000;" horiz-adv-x="401" />
<glyph unicode="&#x2001;" horiz-adv-x="802" />
<glyph unicode="&#x2002;" horiz-adv-x="401" />
<glyph unicode="&#x2003;" horiz-adv-x="802" />
<glyph unicode="&#x2004;" horiz-adv-x="267" />
<glyph unicode="&#x2005;" horiz-adv-x="200" />
<glyph unicode="&#x2006;" horiz-adv-x="133" />
<glyph unicode="&#x2007;" horiz-adv-x="133" />
<glyph unicode="&#x2008;" horiz-adv-x="100" />
<glyph unicode="&#x2009;" horiz-adv-x="160" />
<glyph unicode="&#x200a;" horiz-adv-x="44" />
<glyph unicode="&#x2010;" horiz-adv-x="408" d="M85 328q-19 0 -19 20q0 18 19 18h213q19 0 19 -18q0 -9 -5.5 -14.5t-13.5 -5.5h-213z" />
<glyph unicode="&#x2011;" horiz-adv-x="408" d="M85 328q-19 0 -19 20q0 18 19 18h213q19 0 19 -18q0 -9 -5.5 -14.5t-13.5 -5.5h-213z" />
<glyph unicode="&#x2013;" horiz-adv-x="528" d="M92 271q-10 0 -18 7.5t-8 18.5t8 18.5t18 7.5h344q10 0 18 -7.5t8 -18.5t-8 -18.5t-18 -7.5h-344z" />
<glyph unicode="&#x2014;" horiz-adv-x="898" d="M92 271q-10 0 -18 7.5t-8 18.5t8 18.5t18 7.5h714q10 0 18 -7.5t8 -18.5t-8 -18.5t-18 -7.5h-714z" />
<glyph unicode="&#x2018;" horiz-adv-x="230" d="M171 688q0 -8 -8 -13q-51 -28 -47 -77q27 -7 27 -35v-21q0 -14 -9.5 -23.5t-23.5 -9.5t-23.5 9.5t-9.5 23.5v25q0 77 27 104q32 32 52 32q15 0 15 -15z" />
<glyph unicode="&#x2019;" horiz-adv-x="230" d="M59 525q0 8 8 13q51 28 47 77q-27 7 -27 35v21q0 13 9.5 23t23.5 10t23.5 -10t9.5 -23v-25q0 -77 -27 -104q-32 -32 -52 -32q-15 0 -15 15z" />
<glyph unicode="&#x201c;" horiz-adv-x="410" d="M171 688q0 -8 -8 -13q-51 -28 -47 -77q27 -7 27 -35v-21q0 -14 -9.5 -23.5t-23.5 -9.5t-23.5 9.5t-9.5 23.5v25q0 77 27 104q32 32 52 32q15 0 15 -15zM351 688q0 -8 -8 -13q-51 -28 -47 -77q27 -7 27 -35v-21q0 -14 -9.5 -23.5t-23.5 -9.5t-23.5 9.5t-9.5 23.5v25 q0 77 27 104q32 32 52 32q15 0 15 -15z" />
<glyph unicode="&#x201d;" horiz-adv-x="410" d="M239 525q0 8 8 13q51 28 47 77q-27 7 -27 35v21q0 13 9.5 23t23.5 10t23.5 -10t9.5 -23v-25q0 -77 -27 -104q-32 -32 -52 -32q-15 0 -15 15zM59 525q0 8 8 13q51 28 47 77q-27 7 -27 35v21q0 13 9.5 23t23.5 10t23.5 -10t9.5 -23v-25q0 -77 -27 -104q-32 -32 -52 -32 q-15 0 -15 15z" />
<glyph unicode="&#x2022;" horiz-adv-x="470" d="M235 228q-51 0 -87.5 36t-36.5 87v2q0 50 37.5 86.5t86.5 36.5t86.5 -36.5t37.5 -86.5v-2q0 -51 -36.5 -87t-87.5 -36z" />
<glyph unicode="&#x2026;" horiz-adv-x="680" d="M536 50q0 21 14.5 35.5t35.5 14.5t35.5 -14.5t14.5 -35.5t-14.5 -35.5t-35.5 -14.5t-35.5 14.5t-14.5 35.5zM309 50q0 21 14.5 35.5t35.5 14.5t35.5 -14.5t14.5 -35.5t-14.5 -35.5t-35.5 -14.5t-35.5 14.5t-14.5 35.5zM82 50q0 21 14.5 35.5t35.5 14.5t35.5 -14.5 t14.5 -35.5t-14.5 -35.5t-35.5 -14.5t-35.5 14.5t-14.5 35.5z" />
<glyph unicode="&#x202f;" horiz-adv-x="160" />
<glyph unicode="&#x205f;" horiz-adv-x="200" />
<glyph unicode="&#x2122;" horiz-adv-x="690" d="M123 410v269h-91q-10 0 -10 11q0 10 10 10h202q10 0 10 -10q0 -11 -10 -11h-91v-269q0 -10 -10 -10t-10 10zM530 410v247l-96 -133q-2 -5 -9 -5h-1q-5 0 -9 5l-96 133v-247q0 -10 -10 -10q-11 0 -11 10v278q0 5 5 8v1q10 6 15 -3l107 -148l106 148q5 9 15 3l3 -3 q2 -4 2 -6v-278q0 -10 -11 -10q-10 0 -10 10z" />
</font>
</defs>
</svg>
